PathFileType	4	(X/Y/Z)	D:\Share\Shared_Data\Ergonomics\Sit To Stand Pertubation\S3\Unperturbed.trc
DataRate	CameraRate	NumFrames	NumMarkers	Units	OrigDataRate	OrigDataStartFrame	OrigNumFrames	
100	100	11	18	m	100	1584	191
Frame#	Time	R_Thigh			R_ASIS			R_Pelvis			V_Sacral			L_Pelvis			L_ASIS			Clavical			R_Acromium			L_Acromium			Sternum			Torso			R_Thigh_Med			R_Thigh_Lat			R_Shank_Med			R_Shank_Lat			R_Shank			R_Heel			R_Toe			
		X1	Y1	Z1	X2	Y2	Z2	X3	Y3	Z3	X4	Y4	Z4	X5	Y5	Z5	X6	Y6	Z6	X7	Y7	Z7	X8	Y8	Z8	X9	Y9	Z9	X10	Y10	Z10	X11	Y11	Z11	X12	Y12	Z12	X13	Y13	Z13	X14	Y14	Z14	X15	Y15	Z15	X16	Y16	Z16	X17	Y17	Z17	X18	Y18	Z18	

1584	15.83	0.39512128	0.66349048	0.11318848	0.38016342	0.94499255	0.13897966	0.26802661	0.95449652	0.186838	0.16970471	0.98688239	-0.0060728583	0.28665265	0.96515491	-0.19811046	0.38940143	0.93753412	-0.14564436	0.36556265	1.3735139	-0.0060841241	0.30969421	1.4300599	0.16278664	0.32067856	1.4298013	-0.1618029	0.39261838	1.297611	-0.0011301873	0.37257169	1.3596459	-0.070520561	0.3373548	0.46109894	0.043506687	0.30307489	0.45718454	0.14591745	0.25656839	0.10516897	0.09204763	0.23436028	0.099387657	0.17138246	0.23824811	0.28670859	0.17072194	0.17929126	0.050447186	0.12224546	0.39862289	0.05063549	0.13542137
1585	15.84	0.39451172	0.66260461	0.11284386	0.38234525	0.9455025	0.13924063	0.27011938	0.9547887	0.18695677	0.17168105	0.98659735	-0.0059153609	0.28866467	0.96492163	-0.19804878	0.39161694	0.93773389	-0.14542418	0.36467749	1.3741453	-0.0055892019	0.30823462	1.4301437	0.16316788	0.3193717	1.4302419	-0.16122487	0.39223373	1.2987664	-0.00063683951	0.37169516	1.3606837	-0.070146515	0.33316824	0.46116443	0.042862965	0.29952106	0.45758295	0.14550986	0.25630731	0.10517652	0.092206863	0.23424995	0.099370216	0.17139302	0.23586655	0.28686603	0.17072916	0.17921573	0.050336327	0.12228448	0.39850085	0.051039131	0.13551596
1586	15.85	0.39392542	0.66165698	0.11245822	0.38446878	0.94579297	0.13945045	0.27220923	0.95492767	0.18713361	0.17362233	0.98623846	-0.0057557316	0.29066254	0.96459332	-0.19802737	0.39379288	0.93776178	-0.14523584	0.3637988	1.3746096	-0.0051119175	0.30678262	1.4300015	0.16355151	0.31805539	1.4304885	-0.16068555	0.39185925	1.2997793	-0.00016704641	0.37077014	1.3615361	-0.069827583	0.32916705	0.46116339	0.042301044	0.2963775	0.45788071	0.14520888	0.25607074	0.10517552	0.092386864	0.23415994	0.099340996	0.17141876	0.23381105	0.2869436	0.17085255	0.17914165	0.050236973	0.12234449	0.39838223	0.051462372	0.13563344
1587	15.86	0.39344186	0.66069464	0.11203899	0.38650473	0.94586243	0.13961209	0.27426474	0.9549292	0.18736049	0.17551337	0.98584375	-0.0055980382	0.29265021	0.96420013	-0.19803853	0.39591638	0.93762891	-0.14507324	0.36292966	1.3748955	-0.0046562238	0.30533707	1.4296239	0.16394797	0.31671936	1.4305297	-0.16019672	0.39150049	1.3006194	0.00027421916	0.36981393	1.3621746	-0.069558022	0.32553177	0.4611059	0.041813034	0.2938172	0.4580658	0.14499626	0.25587491	0.10516072	0.092571716	0.23409433	0.099299858	0.17145248	0.23220901	0.28693945	0.17106891	0.17907568	0.050165539	0.12243034	0.39828241	0.051848618	0.13575589
1588	15.87	0.39314301	0.65977643	0.11158637	0.38842471	0.94572656	0.13973358	0.27625009	0.95481891	0.1876293	0.17733987	0.98545923	-0.0054500661	0.29462399	0.96377789	-0.19807866	0.39797412	0.93735669	-0.14492548	0.3620733	1.375004	-0.0042263312	0.3038941	1.4290157	0.16436763	0.31535651	1.4303668	-0.15976764	0.39116089	1.3012668	0.00068246222	0.36885129	1.3625858	-0.069329453	0.3224295	0.46101044	0.041390999	0.29197351	0.45813684	0.14485358	0.25573042	0.1051305	0.092741432	0.23405702	0.099252159	0.1714845	0.23115752	0.28686084	0.17134268	0.17902646	0.050142845	0.12254517	0.39821793	0.052145103	0.13586452
1589	15.88	0.39309952	0.65896423	0.11109702	0.39020441	0.94541937	0.13982799	0.27812753	0.95463037	0.1879278	0.17909015	0.98512994	-0.0053235745	0.29657428	0.96336383	-0.19814467	0.39995398	0.93697687	-0.1447778	0.36123236	1.3749517	-0.0038266134	0.30244727	1.4281971	0.16481804	0.31396255	1.4300155	-0.15940536	0.39083945	1.3017145	0.0010535254	0.36790964	1.3627745	-0.069132103	0.3199906	0.46089993	0.041030922	0.29091202	0.45810336	0.14476624	0.25564066	0.10508738	0.092876808	0.23404694	0.099208679	0.17150572	0.23069768	0.28672495	0.1716306	0.17900272	0.050191448	0.12269041	0.39820316	0.052306736	0.13594147
1590	15.89	0.39335623	0.65831183	0.11056998	0.39182635	0.94499078	0.13991182	0.27986099	0.9543999	0.18823589	0.18075581	0.98489099	-0.0052332282	0.29848694	0.96299042	-0.19823042	0.40184637	0.93652979	-0.14461383	0.36041074	1.3747683	-0.0034607797	0.30098941	1.4272029	0.16530151	0.3125358	1.4295051	-0.15911514	0.39053357	1.3019683	0.0013844476	0.3670162	1.3627628	-0.06895491	0.31829135	0.46079565	0.040734467	0.29061136	0.45798557	0.1447235	0.25560417	0.10503644	0.092964828	0.23405904	0.099180084	0.17150896	0.23079388	0.28655725	0.17188855	0.17901031	0.050329838	0.12286555	0.39824536	0.052313595	0.1359771
1591	15.9	0.39392068	0.65785339	0.11001285	0.39328308	0.94450104	0.14000211	0.28142114	0.95416089	0.18852548	0.18233034	0.9847594	-0.0051939044	0.30034506	0.96268066	-0.19832542	0.40364502	0.93606201	-0.14441876	0.35961835	1.3744935	-0.0031292605	0.29951501	1.4260822	0.16581427	0.31107889	1.4288772	-0.15889859	0.39024249	1.3020465	0.0016742301	0.36619513	1.3625878	-0.06878614	0.31734531	0.46071237	0.040508007	0.2909613	0.45781216	0.14471611	0.25561649	0.10498402	0.093001358	0.23408629	0.099168892	0.17148827	0.23133	0.28638742	0.17208026	0.17904962	0.050563892	0.12306593	0.39834018	0.052193886	0.13597885
1592	15.91	0.39475873	0.65759375	0.10944541	0.39457791	0.94401282	0.14011234	0.28279025	0.95393787	0.18876523	0.18380763	0.9847309	-0.00521631	0.30213074	0.96244458	-0.1984151	0.40534583	0.93562109	-0.14418327	0.35887195	1.3741705	-0.0028284717	0.29802362	1.4248929	0.16634567	0.30960193	1.4281829	-0.1587506	0.38996768	1.3019768	0.0019237399	0.3654653	1.3622966	-0.068615639	0.31710321	0.4606553	0.040359844	0.29178189	0.45761606	0.14473433	0.2556712	0.10493678	0.092991615	0.23412167	0.099164444	0.17144106	0.23213013	0.28624323	0.17218433	0.17911504	0.050876766	0.12327755	0.39847229	0.052020657	0.13596973
1593	15.92	0.39579773	0.65750781	0.10889853	0.39572449	0.94358173	0.14024921	0.28396509	0.95374402	0.18892686	0.18518071	0.98478082	-0.0053023043	0.30382635	0.96227991	-0.19848398	0.40694485	0.93525055	-0.14390659	0.35818628	1.3738378	-0.0025549409	0.29652408	1.4236989	0.1668782	0.30812531	1.4274775	-0.15865669	0.38971158	1.3017914	0.002135447	0.36483743	1.3619381	-0.068437103	0.317457	0.46061975	0.040296326	0.29285889	0.45742862	0.14476768	0.25576091	0.10490069	0.092948387	0.23416174	0.099144875	0.17137102	0.23300012	0.28614606	0.17219624	0.17919624	0.051217876	0.12346796	0.39862115	0.051868805	0.13597215
1594	15.93	0.3969382	0.65754712	0.10840841	0.39674265	0.94324896	0.14041095	0.28495737	0.95358105	0.18899141	0.1864416	0.98486975	-0.0054433384	0.30541541	0.96217395	-0.1985197	0.40843524	0.93498492	-0.14359717	0.35756653	1.3735208	-0.0023085122	0.2950372	1.4225624	0.16738864	0.30667996	1.4268165	-0.15859375	0.38947699	1.3015242	0.0023133242	0.36431186	1.3615547	-0.068248711	0.31824716	0.46059509	0.04031601	0.29398599	0.4572738	0.14480573	0.25587404	0.10487988	0.092886887	0.23420758	0.099084618	0.17128615	0.23377505	0.28610654	0.17212607	0.17928093	0.051512604	0.12359087	0.39876877	0.051761318	0.13598845
